<svg version="1.1" viewBox="0.0 0.0 633.8976377952756 339.15748031496065" fill="none" stroke="none" stroke-linecap="square" stroke-miterlimit="10" xmlns:xlink="http://www.w3.org/1999/xlink" xmlns="http://www.w3.org/2000/svg">
     <path class="A" d="m17.958006 313.42795c35.21737 -79.84184 100.573784 -144.05405 163.72966 -204.27298c30.371262 -28.9589 67.15234 -50.55487 102.916 -72.509186c4.4849243 -2.7531548 17.010803 -10.241245 14.81366 -5.4593163c-31.974426 69.59024 -77.074936 132.62697 -121.627304 194.91862c-19.59439 27.39624 -20.139465 26.999084 -40.543304 53.797913c-52.622543 69.11551 31.719788 -40.909912 -23.391075 30.40683c-1.1234818 1.4538574 -5.045433 5.332367 -3.8976364 3.8976135c48.381287 -60.47661 120.37039 -98.21094 186.34122 -138.78214c25.987549 -15.98201 66.49829 -32.93918 90.44354 -14.034119c15.357452 12.124863 -20.571869 35.281815 -37.42517 45.223083c-48.66693 28.7072 -49.374023 27.520584 -99.79791 53.015747c-33.07727 16.724426 -68.01007 29.636902 -102.916016 42.102356c-5.4349976 1.9409485 -13.073029 6.418457 -17.154846 2.3385925c-5.674263 -5.6715393 4.4635925 -16.156494 10.136475 -21.829407c34.917084 -34.91707 33.819946 -36.367844 72.509186 -67.052475c23.29271 -18.473557 47.457825 -39.245377 76.409454 -46.0c19.620728 -4.577667 0.46472168 41.327652 -7.0183716 60.03412c-1.3548889 3.3869934 -4.2871704 9.9140625 -0.779541 10.916016c32.701874 9.341141 66.5676 -17.152237 100.57745 -17.152237" fill-rule="evenodd"/>
     <path class="A-cross" d="m125.55118 122.40945c35.392395 0 70.64435 -5.4593124 106.03674 -5.4593124c38.569824 0 76.82126 8.577423 115.39108 8.577423" fill-rule="evenodd"/>
</svg>