<svg version="1.1" viewBox="0.0 0.0 869.1758530183727 278.56167979002623" fill="none" stroke="none" stroke-linecap="square" stroke-miterlimit="10" xmlns:xlink="http://www.w3.org/1999/xlink" xmlns="http://www.w3.org/2000/svg">
    <clipPath id="p.0">
        <path d="m0 0l869.17584 0l0 278.56168l-869.17584 0l0 -278.56168z" clip-rule="nonzero"/>
    </clipPath>
    
    <g clip-path="url(#p.0)">
        <path fill="#000000" fill-opacity="0.0" d="m0 0l869.17584 0l0 278.56168l-869.17584 0z" fill-rule="evenodd"/>
        <path fill="#000000" fill-opacity="0.0" d="m6.8871393 269.9828c31.760658 -63.521317 89.471176 -110.451385 137.7454 -162.54068c23.651016 -25.520142 46.708694 -53.995235 77.82677 -69.561676c6.3380127 -3.1705208 13.208221 -12.601606 19.283463 -8.952757c3.7395477 2.2460117 1.0584564 8.854773 0 13.086615c-4.5588837 18.226856 -15.686447 34.24342 -25.48294 50.275593c-20.567764 33.659576 -40.725815 68.818504 -69.561676 95.7349c-9.520035 8.886337 -17.668625 19.196198 -25.48294 29.614182c-4.216629 5.621567 -9.053848 10.773453 -13.083992 16.530182c-1.3167038 1.8807983 -5.628235 7.2521515 -4.1338577 5.509186c36.64702 -42.743225 78.99103 -82.15935 127.4147 -110.88452c22.28688 -13.220688 65.550385 -32.82048 77.1391 -9.6430435c5.0350037 10.07003 -2.3158875 23.821999 -9.643036 32.37008c-26.647797 31.08815 -67.92474 45.762573 -101.244095 69.561676c-17.211853 12.293961 -36.455704 23.234879 -57.162735 27.548569c-7.9173737 1.6493378 -21.88462 10.532455 -24.104988 2.7559052c-9.20224 -32.229782 45.779335 -51.128525 75.75854 -66.11812c34.22795 -17.113983 70.07579 -34.54135 108.13124 -38.56955c41.885803 -4.4336395 84.76236 -7.157547 124.65878 -20.661415c24.668976 -8.3497925 45.90146 -25.470108 65.43045 -42.70079c10.121826 -8.930626 20.413422 -17.675308 30.304474 -26.860893c3.1289062 -2.9057503 14.3811035 -6.222946 10.330688 -7.5748024c-5.027649 -1.6780128 -10.451294 2.3731842 -15.152222 4.8215218c-27.885742 14.523476 -28.07306 14.236206 -55.09973 30.301834c-72.000824 42.79988 -141.12863 90.291824 -212.81628 133.61418c-28.625946 17.29924 -28.869797 16.93158 -58.54068 32.37007c-13.238129 6.8881226 -27.16832 12.49881 -41.32547 17.217865c-1.346405 0.4487915 -2.88208 2.1036682 -2.7532806 0.6902771c1.3471527 -14.7827 12.878372 -27.423233 23.414703 -37.879272c32.77028 -32.520508 32.83255 -32.87941 70.25197 -59.92125c50.947784 -36.818375 52.00244 -35.422302 106.06299 -67.49607c33.097015 -19.636253 71.620605 -28.703796 108.81891 -38.566925c14.42627 -3.8251305 35.814148 -12.630119 44.769012 -0.69029236c23.498138 31.330864 -54.10147 57.619293 -86.77951 79.20472c-39.71933 26.236526 -79.632996 52.496872 -121.90552 74.38321c-28.458008 14.733963 -28.765717 14.2066345 -56.475067 30.304459c-6.3924255 3.7136993 -24.921417 15.422501 -17.908142 13.084c83.60852 -27.878357 163.47034 -66.321 247.25461 -93.66667c25.572174 -8.346313 51.03473 -18.915161 77.82416 -21.34909c6.859741 -0.62323 16.009338 -5.0772552 20.664001 0c9.685974 10.565277 -12.594482 26.366165 -22.729614 36.501312" fill-rule="evenodd"/>
        <path stroke="#000000" stroke-width="4.0" stroke-linejoin="round" stroke-linecap="butt" d="m6.8871393 269.9828c31.760658 -63.521317 89.471176 -110.451385 137.7454 -162.54068c23.651016 -25.520142 46.708694 -53.995235 77.82677 -69.561676c6.3380127 -3.1705208 13.208221 -12.601606 19.283463 -8.952757c3.7395477 2.2460117 1.0584564 8.854773 0 13.086615c-4.5588837 18.226856 -15.686447 34.24342 -25.48294 50.275593c-20.567764 33.659576 -40.725815 68.818504 -69.561676 95.7349c-9.520035 8.886337 -17.668625 19.196198 -25.48294 29.614182c-4.216629 5.621567 -9.053848 10.773453 -13.083992 16.530182c-1.3167038 1.8807983 -5.628235 7.2521515 -4.1338577 5.509186c36.64702 -42.743225 78.99103 -82.15935 127.4147 -110.88452c22.28688 -13.220688 65.550385 -32.82048 77.1391 -9.6430435c5.0350037 10.07003 -2.3158875 23.821999 -9.643036 32.37008c-26.647797 31.08815 -67.92474 45.762573 -101.244095 69.561676c-17.211853 12.293961 -36.455704 23.234879 -57.162735 27.548569c-7.9173737 1.6493378 -21.88462 10.532455 -24.104988 2.7559052c-9.20224 -32.229782 45.779335 -51.128525 75.75854 -66.11812c34.22795 -17.113983 70.07579 -34.54135 108.13124 -38.56955c41.885803 -4.4336395 84.76236 -7.157547 124.65878 -20.661415c24.668976 -8.3497925 45.90146 -25.470108 65.43045 -42.70079c10.121826 -8.930626 20.413422 -17.675308 30.304474 -26.860893c3.1289062 -2.9057503 14.3811035 -6.222946 10.330688 -7.5748024c-5.027649 -1.6780128 -10.451294 2.3731842 -15.152222 4.8215218c-27.885742 14.523476 -28.07306 14.236206 -55.09973 30.301834c-72.000824 42.79988 -141.12863 90.291824 -212.81628 133.61418c-28.625946 17.29924 -28.869797 16.93158 -58.54068 32.37007c-13.238129 6.8881226 -27.16832 12.49881 -41.32547 17.217865c-1.346405 0.4487915 -2.88208 2.1036682 -2.7532806 0.6902771c1.3471527 -14.7827 12.878372 -27.423233 23.414703 -37.879272c32.77028 -32.520508 32.83255 -32.87941 70.25197 -59.92125c50.947784 -36.818375 52.00244 -35.422302 106.06299 -67.49607c33.097015 -19.636253 71.620605 -28.703796 108.81891 -38.566925c14.42627 -3.8251305 35.814148 -12.630119 44.769012 -0.69029236c23.498138 31.330864 -54.10147 57.619293 -86.77951 79.20472c-39.71933 26.236526 -79.632996 52.496872 -121.90552 74.38321c-28.458008 14.733963 -28.765717 14.2066345 -56.475067 30.304459c-6.3924255 3.7136993 -24.921417 15.422501 -17.908142 13.084c83.60852 -27.878357 163.47034 -66.321 247.25461 -93.66667c25.572174 -8.346313 51.03473 -18.915161 77.82416 -21.34909c6.859741 -0.62323 16.009338 -5.0772552 20.664001 0c9.685974 10.565277 -12.594482 26.366165 -22.729614 36.501312" fill-rule="evenodd"/>
        <path fill="#000000" fill-opacity="0.0" d="m477.9786 19.284721c14.5972595 -5.829999 37.120697 -6.8477526 46.832 5.511812c7.3275757 9.325766 9.691345 22.598562 8.952759 34.43569c-1.4558716 23.333378 -26.517517 38.53049 -40.635162 57.165356c-19.763367 26.087067 -35.61682 54.968582 -55.097107 81.267715c-12.681091 17.119965 -23.504639 35.90097 -38.56955 50.96588c-4.968994 4.968994 -9.184265 10.684311 -13.083984 16.530197c-1.7700195 2.6533203 -3.3929443 11.116821 -4.821533 8.265076c-6.912964 -13.799622 15.186951 -26.888107 23.417328 -39.944885c24.40625 -38.718323 54.38849 -74.5627 88.84515 -104.68765c7.622467 -6.6642303 10.048187 -17.704895 16.530182 -25.482948c32.088135 -38.50415 75.377075 -100.83797 123.28082 -86.09186c10.604919 3.2644882 13.774292 19.208462 13.774292 30.304462c0 33.996216 -11.732361 68.472984 -28.926514 97.80053c-17.036743 29.059097 -42.597107 53.43402 -55.097107 84.71391c-2.802185 7.0121307 -12.295776 15.453369 -7.5774536 21.349075c6.864563 8.577454 21.877502 -2.9437103 32.370117 -6.199478c40.02533 -12.419495 76.64905 -34.239563 116.3963 -47.52231" fill-rule="evenodd"/>
        <path stroke="#000000" stroke-width="4.0" stroke-linejoin="round" stroke-linecap="butt" d="m477.9786 19.284721c14.5972595 -5.829999 37.120697 -6.8477526 46.832 5.511812c7.3275757 9.325766 9.691345 22.598562 8.952759 34.43569c-1.4558716 23.333378 -26.517517 38.53049 -40.635162 57.165356c-19.763367 26.087067 -35.61682 54.968582 -55.097107 81.267715c-12.681091 17.119965 -23.504639 35.90097 -38.56955 50.96588c-4.968994 4.968994 -9.184265 10.684311 -13.083984 16.530197c-1.7700195 2.6533203 -3.3929443 11.116821 -4.821533 8.265076c-6.912964 -13.799622 15.186951 -26.888107 23.417328 -39.944885c24.40625 -38.718323 54.38849 -74.5627 88.84515 -104.68765c7.622467 -6.6642303 10.048187 -17.704895 16.530182 -25.482948c32.088135 -38.50415 75.377075 -100.83797 123.28082 -86.09186c10.604919 3.2644882 13.774292 19.208462 13.774292 30.304462c0 33.996216 -11.732361 68.472984 -28.926514 97.80053c-17.036743 29.059097 -42.597107 53.43402 -55.097107 84.71391c-2.802185 7.0121307 -12.295776 15.453369 -7.5774536 21.349075c6.864563 8.577454 21.877502 -2.9437103 32.370117 -6.199478c40.02533 -12.419495 76.64905 -34.239563 116.3963 -47.52231" fill-rule="evenodd"/>
        <path fill="#000000" fill-opacity="0.0" d="m517.9239 265.1601c24.156616 0 47.709106 -7.6329346 71.62732 -11.018356c51.03412 -7.22348 102.90674 -8.52301 153.58789 -17.908142c26.16687 -4.845581 51.90271 -14.461945 78.514465 -14.461945" fill-rule="evenodd"/>
        <path stroke="#000000" stroke-width="4.0" stroke-linejoin="round" stroke-linecap="butt" d="m517.9239 265.1601c24.156616 0 47.709106 -7.6329346 71.62732 -11.018356c51.03412 -7.22348 102.90674 -8.52301 153.58789 -17.908142c26.16687 -4.845581 51.90271 -14.461945 78.514465 -14.461945" fill-rule="evenodd"/>
        <path fill="#000000" fill-opacity="0.0" d="m69.561676 92.288216c70.82402 0 138.53801 -29.539162 207.99475 -43.38845c58.087494 -11.582325 119.27185 -9.761585 177.6929 0" fill-rule="evenodd"/>
        <path stroke="#000000" stroke-width="4.0" stroke-linejoin="round" stroke-linecap="butt" d="m69.561676 92.288216c70.82402 0 138.53801 -29.539162 207.99475 -43.38845c58.087494 -11.582325 119.27185 -9.761585 177.6929 0" fill-rule="evenodd"/>
    </g>    
</svg>