<svg version="1.1" viewBox="0.0 0.0 633.8976377952756 339.15748031496065" fill="none" stroke="none" stroke-linecap="square" stroke-miterlimit="10" xmlns:xlink="http://www.w3.org/1999/xlink" xmlns="http://www.w3.org/2000/svg">
    <clipPath id="p.0"><path d="m0 0l633.89764 0l0 339.15747l-633.89764 0l0 -339.15747z" clip-rule="nonzero"/></clipPath>
    <g clip-path="url(#p.0)">
        <path fill="#000000" fill-opacity="0.0" d="m0 0l633.89764 0l0 339.15747l-633.89764 0z" fill-rule="evenodd"/>
        <path fill="#000000" fill-opacity="0.0" d="m17.958006 313.42795c35.21737 -79.84184 100.573784 -144.05405 163.72966 -204.27298c30.371262 -28.9589 67.15234 -50.55487 102.916 -72.509186c4.4849243 -2.7531548 17.010803 -10.241245 14.81366 -5.4593163c-31.974426 69.59024 -77.074936 132.62697 -121.627304 194.91862c-19.59439 27.39624 -20.139465 26.999084 -40.543304 53.797913c-52.622543 69.11551 31.719788 -40.909912 -23.391075 30.40683c-1.1234818 1.4538574 -5.045433 5.332367 -3.8976364 3.8976135c48.381287 -60.47661 120.37039 -98.21094 186.34122 -138.78214c25.987549 -15.98201 66.49829 -32.93918 90.44354 -14.034119c15.357452 12.124863 -20.571869 35.281815 -37.42517 45.223083c-48.66693 28.7072 -49.374023 27.520584 -99.79791 53.015747c-33.07727 16.724426 -68.01007 29.636902 -102.916016 42.102356c-5.4349976 1.9409485 -13.073029 6.418457 -17.154846 2.3385925c-5.674263 -5.6715393 4.4635925 -16.156494 10.136475 -21.829407c34.917084 -34.91707 33.819946 -36.367844 72.509186 -67.052475c23.29271 -18.473557 47.457825 -39.245377 76.409454 -46.0c19.620728 -4.577667 0.46472168 41.327652 -7.0183716 60.03412c-1.3548889 3.3869934 -4.2871704 9.9140625 -0.779541 10.916016c32.701874 9.341141 66.5676 -17.152237 100.57745 -17.152237" fill-rule="evenodd"/>
        <path stroke="#000000" stroke-width="4.0" stroke-linejoin="round" stroke-linecap="butt" d="m17.958006 313.42795c35.21737 -79.84184 100.573784 -144.05405 163.72966 -204.27298c30.371262 -28.9589 67.15234 -50.55487 102.916 -72.509186c4.4849243 -2.7531548 17.010803 -10.241245 14.81366 -5.4593163c-31.974426 69.59024 -77.074936 132.62697 -121.627304 194.91862c-19.59439 27.39624 -20.139465 26.999084 -40.543304 53.797913c-52.622543 69.11551 31.719788 -40.909912 -23.391075 30.40683c-1.1234818 1.4538574 -5.045433 5.332367 -3.8976364 3.8976135c48.381287 -60.47661 120.37039 -98.21094 186.34122 -138.78214c25.987549 -15.98201 66.49829 -32.93918 90.44354 -14.034119c15.357452 12.124863 -20.571869 35.281815 -37.42517 45.223083c-48.66693 28.7072 -49.374023 27.520584 -99.79791 53.015747c-33.07727 16.724426 -68.01007 29.636902 -102.916016 42.102356c-5.4349976 1.9409485 -13.073029 6.418457 -17.154846 2.3385925c-5.674263 -5.6715393 4.4635925 -16.156494 10.136475 -21.829407c34.917084 -34.91707 33.819946 -36.367844 72.509186 -67.052475c23.29271 -18.473557 47.457825 -39.245377 76.409454 -46.0c19.620728 -4.577667 0.46472168 41.327652 -7.0183716 60.03412c-1.3548889 3.3869934 -4.2871704 9.9140625 -0.779541 10.916016c32.701874 9.341141 66.5676 -17.152237 100.57745 -17.152237" fill-rule="evenodd"/>
        <path fill="#000000" fill-opacity="0.0" d="m385.18106 42.88072c8.32077 0 22.318878 -7.1142464 24.950134 0.7795296c7.004944 21.014824 -13.908386 42.389732 -24.950134 61.593178c-24.15152 42.00361 -48.096252 84.13987 -73.2887 125.52755c-11.3185425 18.594818 -27.288422 34.568848 -35.863525 54.577423c-3.480896 8.122131 -8.091675 15.718323 -12.475067 23.391083c-0.86465454 1.5135193 -2.889801 6.3308105 -2.338562 4.677185c7.3598633 -22.07962 22.868286 -40.543182 34.304443 -60.81366c24.095093 -42.708313 51.873444 -83.23152 77.968506 -124.74803c23.304321 -37.076515 56.29959 -103.06401 97.456696 -88.10237c23.601349 8.579689 0.10534668 51.283176 -8.574799 74.84776c-15.098846 40.989815 -32.20703 81.26635 -50.67981 120.850395c-5.607025 12.014969 -5.4825745 12.072327 -10.913361 24.167984c-3.1453857 7.0054626 -2.6867676 7.2258606 -6.238861 14.034119c-4.8115234 9.2221985 -15.47818 24.358154 -7.015747 30.40683c17.640137 12.608582 43.550842 -6.323059 63.15222 -15.59317c23.33377 -11.035309 48.69403 -18.427673 70.17059 -32.745422" fill-rule="evenodd"/>
        <path stroke="#000000" stroke-width="4.0" stroke-linejoin="round" stroke-linecap="butt" d="m385.18106 42.88072c8.32077 0 22.318878 -7.1142464 24.950134 0.7795296c7.004944 21.014824 -13.908386 42.389732 -24.950134 61.593178c-24.15152 42.00361 -48.096252 84.13987 -73.2887 125.52755c-11.3185425 18.594818 -27.288422 34.568848 -35.863525 54.577423c-3.480896 8.122131 -8.091675 15.718323 -12.475067 23.391083c-0.86465454 1.5135193 -2.889801 6.3308105 -2.338562 4.677185c7.3598633 -22.07962 22.868286 -40.543182 34.304443 -60.81366c24.095093 -42.708313 51.873444 -83.23152 77.968506 -124.74803c23.304321 -37.076515 56.29959 -103.06401 97.456696 -88.10237c23.601349 8.579689 0.10534668 51.283176 -8.574799 74.84776c-15.098846 40.989815 -32.20703 81.26635 -50.67981 120.850395c-5.607025 12.014969 -5.4825745 12.072327 -10.913361 24.167984c-3.1453857 7.0054626 -2.6867676 7.2258606 -6.238861 14.034119c-4.8115234 9.2221985 -15.47818 24.358154 -7.015747 30.40683c17.640137 12.608582 43.550842 -6.323059 63.15222 -15.59317c23.33377 -11.035309 48.69403 -18.427673 70.17059 -32.745422" fill-rule="evenodd"/>
        <path fill="#000000" fill-opacity="0.0" d="m125.55118 122.40945c35.392395 0 70.64435 -5.4593124 106.03674 -5.4593124c38.569824 0 76.82126 8.577423 115.39108 8.577423" fill-rule="evenodd"/>
        <path stroke="#000000" stroke-width="4.0" stroke-linejoin="round" stroke-linecap="butt" d="m125.55118 122.40945c35.392395 0 70.64435 -5.4593124 106.03674 -5.4593124c38.569824 0 76.82126 8.577423 115.39108 8.577423" fill-rule="evenodd"/>
        <path fill="#000000" fill-opacity="0.0" d="m388.30185 328.24146c73.63364 -29.690125 152.19943 -45.455627 229.22311 -64.71127" fill-rule="evenodd"/>
        <path stroke="#000000" stroke-width="4.0" stroke-linejoin="round" stroke-linecap="butt" d="m388.30185 328.24146c73.63364 -29.690125 152.19943 -45.455627 229.22311 -64.71127" fill-rule="evenodd"/>
    </g>
</svg>